<?xml version="1.0" standalone="no"?><!DOCTYPE svg PUBLIC "-//W3C//DTD SVG 1.1//EN" "http://www.w3.org/Graphics/SVG/1.1/DTD/svg11.dtd"><svg t="1591258874303" class="icon" viewBox="0 0 1024 1024" version="1.1" xmlns="http://www.w3.org/2000/svg" p-id="4537" xmlns:xlink="http://www.w3.org/1999/xlink" width="48" height="48"><defs><style type="text/css"></style></defs><path d="M520.084 264.084L975.494 56.59C956.633 24.253 921.6 2.695 878.485 2.695H137.432C102.4 0 70.063 21.558 51.2 48.505l468.884 215.58z m0 0" fill="#F44242" p-id="4538"></path><path d="M530.863 320.674c-2.695 2.694-8.084 2.694-10.779 2.694-2.695 0-8.084 0-10.779-2.694L32.337 97.01v816.505C32.337 972.8 80.842 1024 140.127 1024h741.052c59.284 0 110.484-48.505 110.484-110.484V110.484l-460.8 210.19z m115.874 347.62c16.168 0 26.947 10.78 26.947 26.948s-10.779 26.947-26.947 26.947H536.253v107.79c0 16.168-10.78 26.947-26.948 26.947s-26.947-10.779-26.947-26.947v-107.79H371.874c-16.169 0-26.948-10.778-26.948-26.947s10.78-26.947 26.948-26.947h110.484V603.62h-113.18c-16.167 0-26.946-10.779-26.946-26.947s10.779-26.948 26.947-26.948h83.537l-91.621-91.62c-10.78-10.78-10.78-26.948 0-37.727 10.779-10.779 26.947-10.779 37.726 0l110.484 110.484L619.79 420.38c10.78-10.779 26.948-10.779 37.727 0 10.779 10.779 10.779 26.947 0 37.726l-91.621 88.927h83.537c16.168 0 26.947 10.779 26.947 26.947s-10.779 26.947-26.947 26.947h-113.18V665.6h110.485z m0 0" fill="#F44242" p-id="4539"></path></svg>