<?xml version="1.0" standalone="no"?><!DOCTYPE svg PUBLIC "-//W3C//DTD SVG 1.1//EN" "http://www.w3.org/Graphics/SVG/1.1/DTD/svg11.dtd"><svg t="1591258159708" class="icon" viewBox="0 0 1024 1024" version="1.1" xmlns="http://www.w3.org/2000/svg" p-id="2709" xmlns:xlink="http://www.w3.org/1999/xlink" width="48" height="48"><defs><style type="text/css"></style></defs><path d="M183.912765 45.978191h650.262989v932.700449H183.912765z" fill="#E83828" p-id="2710"></path><path d="M186.54009 45.978191h651.576652L512.328416 534.003849z" fill="#C30D23" p-id="2711"></path><path d="M512.328416 507.730597m-191.137909 0a191.137909 191.137909 0 1 0 382.275818 0 191.137909 191.137909 0 1 0-382.275818 0Z" fill="#EBC14C" p-id="2712"></path><path d="M595.745991 535.974343H527.435536v-36.125722h68.310455c8.538807 0 15.10712-6.568313 15.10712-15.10712 0-8.538807-6.568313-15.10712-15.10712-15.10712h-44.664529l24.95959-24.959589c5.911482-5.911482 5.911482-15.10712 0-21.018602-5.911482-5.911482-15.10712-5.911482-21.018602 0L512.328416 466.350225l-42.037204-42.037204c-5.911482-5.911482-15.10712-5.911482-21.018601 0-5.911482 5.911482-5.911482 15.10712 0 21.018602l24.959589 24.959589h-44.664528c-8.538807 0-15.10712 6.568313-15.10712 15.10712 0 8.538807 6.568313 15.10712 15.10712 15.10712h68.310455v36.125722H429.567672c-8.538807 0-15.10712 6.568313-15.10712 15.10712 0 8.538807 6.568313 15.10712 15.10712 15.10712h68.310455v49.919179c0 7.225144 5.911482 13.136626 13.136626 13.136626h3.284157c7.225144 0 13.136626-5.911482 13.136626-13.136626v-49.919179h68.310455c8.538807 0 15.10712-6.568313 15.10712-15.10712 0-9.195638-7.225144-15.763951-15.10712-15.763951z" fill="#E29C4E" p-id="2713"></path></svg>