<?xml version="1.0" standalone="no"?><!DOCTYPE svg PUBLIC "-//W3C//DTD SVG 1.1//EN" "http://www.w3.org/Graphics/SVG/1.1/DTD/svg11.dtd"><svg t="1591233384989" class="icon" viewBox="0 0 1024 1024" version="1.1" xmlns="http://www.w3.org/2000/svg" p-id="4171" xmlns:xlink="http://www.w3.org/1999/xlink" width="48" height="48"><defs><style type="text/css"></style></defs><path d="M84.26 374.35v567.21h567.21c160.92 0 291.38-130.45 291.38-291.38V82.97H375.64c-160.92 0-291.38 130.46-291.38 291.38z" fill="#1296db" p-id="4172" data-spm-anchor-id="a313x.7781069.0.i13" class="selected"></path><path d="M651.48 942.06H83.77V374.35c0-77.96 30.36-151.26 85.49-206.38 55.13-55.13 128.42-85.49 206.38-85.49h567.71v567.71c0 77.96-30.36 151.26-85.49 206.38-55.13 55.13-128.42 85.49-206.38 85.49z m-566.72-0.99h566.72c160.39 0 290.88-130.49 290.88-290.88V83.47H375.64c-160.39 0-290.88 130.49-290.88 290.88v566.72z" fill="#EF5250" p-id="4173"></path><path d="M239.98 669.15l48.48 19.39c-22.16 54.02-45.02 100.2-68.57 138.52-15.24-8.78-30.71-17.32-46.4-25.63 25.85-38.78 48.01-82.87 66.49-132.28z m443.96-100.43l36.71-28.4c48.48 40.17 90.96 77.57 127.44 112.2l-41.56 33.25a1302.823 1302.823 0 0 0-52.98-54.02c-120.51 2.08-308.1 6.7-562.75 13.85l-4.16-50.56c102.97 0 203.85-0.46 302.67-1.39v-56.1H290.54v16.62h-48.48V324.92h247.26v-47.79H186.65V232.8h302.67v-58.18h48.48v58.18h302.67v44.33H537.8v47.79h247.26v212.63H537.8v55.76c57.95-0.69 115.2-1.5 171.77-2.42-8.55-7.39-17.09-14.78-25.63-22.17z m-393.4-156.53h198.78v-47.1H290.54v47.1z m0 85.19h198.78v-47.1H290.54v47.1z m47.79 173.15h52.64v76.88c0 28.17 15.93 42.25 47.79 42.25h145.45c31.86 0 50.1-10.39 54.72-31.17 4.16-18.01 7.15-40.4 9-67.18 5.54 2.31 22.62 9.24 51.25 20.78-3.24 24.93-7.16 46.87-11.77 65.8-8.78 40.17-39.94 60.26-93.5 60.26H425.6c-58.18 0-87.27-28.63-87.27-85.88v-81.74z m121.21-1.38l37.4-27.71c34.17 30.94 61.41 58.65 81.73 83.11l-41.56 33.25c-23.09-29.09-48.95-58.64-77.57-88.65z m277.04-304.06H537.8v47.1h198.78v-47.1z m0 132.29v-47.1H537.8v47.1h198.78z m-12.47 208.48l38.79-28.4c24.93 27.24 55.64 63.26 92.12 108.05l-43.63 31.86c-22.17-31.4-51.26-68.57-87.28-111.51z" fill="#FFFFFF" p-id="4174"></path></svg>